<?xml version="1.0" encoding="UTF-8" standalone="no"?>
<svg
   xmlns:dc="http://purl.org/dc/elements/1.1/"
   xmlns:cc="http://creativecommons.org/ns#"
   xmlns:rdf="http://www.w3.org/1999/02/22-rdf-syntax-ns#"
   xmlns:svg="http://www.w3.org/2000/svg"
   xmlns="http://www.w3.org/2000/svg"
   xmlns:xlink="http://www.w3.org/1999/xlink"
   xmlns:sodipodi="http://sodipodi.sourceforge.net/DTD/sodipodi-0.dtd"
   xmlns:inkscape="http://www.inkscape.org/namespaces/inkscape"
   width="319.23511"
   height="315.82495"
   viewBox="0 0 319.23511 315.82495"
   id="svg3017"
   version="1.1"
   inkscape:version="0.91 r13725"
   sodipodi:docname="Internet Explorer logo 2007.svg">
  <metadata
     id="metadata3035">
    <rdf:RDF>
      <cc:Work
         rdf:about="">
        <dc:format>image/svg+xml</dc:format>
        <dc:type
           rdf:resource="http://purl.org/dc/dcmitype/StillImage" />
        <dc:title></dc:title>
      </cc:Work>
    </rdf:RDF>
  </metadata>
  <sodipodi:namedview
     pagecolor="#ffffff"
     bordercolor="#666666"
     borderopacity="1"
     objecttolerance="10"
     gridtolerance="10"
     guidetolerance="10"
     inkscape:pageopacity="0"
     inkscape:pageshadow="2"
     inkscape:window-width="1366"
     inkscape:window-height="705"
     id="namedview3033"
     showgrid="false"
     fit-margin-top="0"
     fit-margin-left="0"
     fit-margin-right="0"
     fit-margin-bottom="0"
     inkscape:zoom="0.544297"
     inkscape:cx="223.29459"
     inkscape:cy="140.2152"
     inkscape:window-x="-8"
     inkscape:window-y="-8"
     inkscape:window-maximized="1"
     inkscape:current-layer="svg3017"
     showguides="false" />
  <defs
     id="defs3019">
    <linearGradient
       inkscape:collect="always"
       id="linearGradient6660">
      <stop
         style="stop-color:#041d3b;stop-opacity:1"
         offset="0"
         id="stop6662" />
      <stop
         id="stop6668"
         offset="0.65178567"
         style="stop-color:#118ada;stop-opacity:1" />
      <stop
         style="stop-color:#031b37;stop-opacity:1"
         offset="1"
         id="stop6664" />
    </linearGradient>
    <linearGradient
       id="linearGradient6457"
       inkscape:collect="always">
      <stop
         id="stop6459"
         offset="0"
         style="stop-color:#0e81d1;stop-opacity:1" />
      <stop
         id="stop6463"
         offset="1"
         style="stop-color:#000000;stop-opacity:0" />
    </linearGradient>
    <linearGradient
       inkscape:collect="always"
       id="linearGradient6445">
      <stop
         style="stop-color:#f1fa2c;stop-opacity:0.62352943"
         offset="0"
         id="stop6447" />
      <stop
         style="stop-color:#ffffff;stop-opacity:0;"
         offset="1"
         id="stop6449" />
    </linearGradient>
    <linearGradient
       inkscape:collect="always"
       id="linearGradient6435">
      <stop
         style="stop-color:#ffffff;stop-opacity:1"
         offset="0"
         id="stop6437" />
      <stop
         style="stop-color:#f6da50;stop-opacity:1"
         offset="1"
         id="stop6439" />
    </linearGradient>
    <linearGradient
       inkscape:collect="always"
       id="linearGradient6415">
      <stop
         style="stop-color:#fcd033;stop-opacity:1"
         offset="0"
         id="stop6417" />
      <stop
         style="stop-color:#f0a609;stop-opacity:1"
         offset="1"
         id="stop6419" />
    </linearGradient>
    <linearGradient
       inkscape:collect="always"
       id="linearGradient6397">
      <stop
         style="stop-color:#87ebfc;stop-opacity:1"
         offset="0"
         id="stop6399" />
      <stop
         id="stop6403"
         offset="0.57406157"
         style="stop-color:#118bdb;stop-opacity:1" />
      <stop
         style="stop-color:#031936;stop-opacity:0"
         offset="1"
         id="stop6401" />
    </linearGradient>
    <linearGradient
       id="linearGradient6387"
       inkscape:collect="always">
      <stop
         id="stop6389"
         offset="0"
         style="stop-color:#0b395e;stop-opacity:0" />
      <stop
         id="stop6391"
         offset="1"
         style="stop-color:#031936;stop-opacity:1" />
    </linearGradient>
    <linearGradient
       inkscape:collect="always"
       id="linearGradient6377">
      <stop
         style="stop-color:#0b395e;stop-opacity:1"
         offset="0"
         id="stop6379" />
      <stop
         style="stop-color:#ffffff;stop-opacity:0"
         offset="1"
         id="stop6381" />
    </linearGradient>
    <linearGradient
       id="linearGradient6365"
       inkscape:collect="always">
      <stop
         id="stop6367"
         offset="0"
         style="stop-color:#ffffff;stop-opacity:1" />
      <stop
         id="stop6371"
         offset="1"
         style="stop-color:#ffffff;stop-opacity:0.19215687" />
    </linearGradient>
    <linearGradient
       inkscape:collect="always"
       id="linearGradient6351">
      <stop
         style="stop-color:#7be4fc;stop-opacity:1"
         offset="0"
         id="stop6353" />
      <stop
         style="stop-color:#2a96c9;stop-opacity:1"
         offset="1"
         id="stop6355" />
    </linearGradient>
    <radialGradient
       inkscape:collect="always"
       xlink:href="#linearGradient6351"
       id="radialGradient6357"
       cx="430.65808"
       cy="228.01268"
       fx="430.65808"
       fy="228.01268"
       r="132.28648"
       gradientTransform="matrix(1.2079214,-0.06383327,0.04967337,0.93994931,-357.54266,57.120927)"
       gradientUnits="userSpaceOnUse" />
    <linearGradient
       inkscape:collect="always"
       xlink:href="#linearGradient6365"
       id="linearGradient6363"
       x1="433.25632"
       y1="19.695347"
       x2="432.60675"
       y2="71.010567"
       gradientUnits="userSpaceOnUse"
       gradientTransform="translate(-256.67345,21.593001)" />
    <linearGradient
       inkscape:collect="always"
       xlink:href="#linearGradient6377"
       id="linearGradient6375"
       x1="374.14636"
       y1="62.566288"
       x2="437.80322"
       y2="145.70993"
       gradientUnits="userSpaceOnUse"
       gradientTransform="translate(-256.67345,21.593001)" />
    <radialGradient
       inkscape:collect="always"
       xlink:href="#linearGradient6387"
       id="radialGradient6385"
       cx="438.1571"
       cy="130.36632"
       fx="438.1571"
       fy="130.36632"
       r="132.28648"
       gradientTransform="matrix(0.95960215,-0.02583485,0.04931261,1.8316204,-248.35368,-77.047492)"
       gradientUnits="userSpaceOnUse" />
    <radialGradient
       inkscape:collect="always"
       xlink:href="#linearGradient6397"
       id="radialGradient6395"
       gradientUnits="userSpaceOnUse"
       gradientTransform="matrix(0.95960215,-0.02583485,0.04931261,1.8316204,-248.35368,-77.047492)"
       cx="431.69476"
       cy="177.0872"
       fx="431.69476"
       fy="177.0872"
       r="132.28648" />
    <radialGradient
       inkscape:collect="always"
       xlink:href="#linearGradient6415"
       id="radialGradient6413"
       cx="707.76495"
       cy="232.3396"
       fx="707.76495"
       fy="232.3396"
       r="143.93015"
       gradientTransform="matrix(0.80309335,0.08312829,-0.06168889,0.59594594,-426.20267,-70.266898)"
       gradientUnits="userSpaceOnUse" />
    <radialGradient
       inkscape:collect="always"
       xlink:href="#linearGradient6435"
       id="radialGradient6441"
       cx="712.01666"
       cy="223.27782"
       fx="712.01666"
       fy="223.27782"
       r="144.70467"
       gradientTransform="matrix(0.36184815,-0.35708698,0.74372435,0.75365195,-313.28355,185.80544)"
       gradientUnits="userSpaceOnUse" />
    <linearGradient
       inkscape:collect="always"
       xlink:href="#linearGradient6445"
       id="linearGradient6451"
       x1="646.23865"
       y1="280.34222"
       x2="633.97028"
       y2="377.60272"
       gradientUnits="userSpaceOnUse"
       gradientTransform="translate(-580.15418,-110.91718)" />
    <linearGradient
       inkscape:collect="always"
       xlink:href="#linearGradient6457"
       id="linearGradient6455"
       x1="430.00851"
       y1="252.23772"
       x2="432.60672"
       y2="200.27295"
       gradientUnits="userSpaceOnUse"
       gradientTransform="translate(-256.67345,21.593001)" />
    <linearGradient
       inkscape:collect="always"
       xlink:href="#linearGradient6660"
       id="linearGradient6666"
       x1="148.81581"
       y1="118.32249"
       x2="251.70082"
       y2="118.32249"
       gradientUnits="userSpaceOnUse" />
  </defs>
  <path
     style="color:#000000;font-style:normal;font-variant:normal;font-weight:normal;font-stretch:normal;font-size:medium;line-height:normal;font-family:sans-serif;text-indent:0;text-align:start;text-decoration:none;text-decoration-line:none;text-decoration-style:solid;text-decoration-color:#000000;letter-spacing:normal;word-spacing:normal;text-transform:none;direction:ltr;block-progression:tb;writing-mode:lr-tb;baseline-shift:baseline;text-anchor:start;white-space:normal;clip-rule:nonzero;display:inline;overflow:visible;visibility:visible;opacity:1;isolation:auto;mix-blend-mode:normal;color-interpolation:sRGB;color-interpolation-filters:linearRGB;solid-color:#000000;solid-opacity:1;fill:url(#linearGradient6666);fill-opacity:1;fill-rule:nonzero;stroke:none;stroke-width:7;stroke-linecap:butt;stroke-linejoin:miter;stroke-miterlimit:4;stroke-dasharray:none;stroke-dashoffset:0;stroke-opacity:1;color-rendering:auto;image-rendering:auto;shape-rendering:auto;text-rendering:auto;enable-background:accumulate"
     d="M 178.5332,25.822266 C 103.96762,25.821897 43.242811,82.836491 43.244141,153.33984 c 0.0012,70.5017 60.725239,127.51404 135.289059,127.51368 l 0.002,0 c 59.66566,-0.0259 112.37857,-36.90883 129.54101,-90.93946 l 1.44727,-4.55859 -94.63282,0 -0.78124,2.42383 c -4.97045,15.40351 -18.85213,26.42578 -35.22266,26.42578 -20.5011,0 -37.17969,-17.2525 -37.17969,-38.79102 l 0,-0.75976 170.05274,0 0.48046,-2.9336 c 0.99393,-6.07206 1.52206,-12.20535 1.57813,-18.34961 l 0,-0.0156 0,-0.0156 C 313.81969,82.837984 253.0972,25.824001 178.5332,25.822266 Z m 0,7 c 70.99842,0.0017 128.27735,54.02746 128.28516,120.501954 -0.0445,4.79499 -0.46949,9.57557 -1.12109,14.33008 l -170.99024,0 0,7.75976 c 0,25.17705 19.74607,45.79102 44.17969,45.79102 18.61119,0 34.38813,-12.02792 40.89062,-28.84961 l 79.95899,0 C 282.07596,240.81036 233.58795,273.8288 178.5332,273.85352 107.52934,273.85387 50.245246,219.8214 50.244141,153.33984 50.242887,86.85671 107.52766,32.821914 178.5332,32.822266 Z m 0.35352,54.18164 c -24.08738,0 -43.58339,20.045534 -44.13086,44.730474 l -0.0801,3.57812 88.42383,0 -0.0781,-3.57617 C 222.47672,107.05077 202.97639,87.003906 178.88672,87.003906 Z m 0,7 c 19.0344,0 34.56425,14.944184 36.7168,34.308594 l -73.42969,0 c 2.15407,-19.36496 17.68103,-34.308594 36.71289,-34.308594 z"
     id="path6656"
     inkscape:connector-curvature="0" />
  <path
     style="fill:url(#radialGradient6357);fill-opacity:1;fill-rule:nonzero;stroke:none"
     d="M 178.53352,29.321299 A 131.78777,124.01597 0 0 0 46.745057,153.33947 131.78777,124.01597 0 0 0 178.53352,277.3535 131.78777,124.01597 0 0 0 304.74023,188.85451 l -87.30093,0 c -5.40801,16.75955 -20.60978,28.85084 -38.55269,28.85084 -22.46736,0 -40.67907,-18.93284 -40.67907,-42.29062 l 0,-4.26 170.57917,0 A 131.78777,124.01597 0 0 0 310.31803,153.33947 131.78777,124.01597 0 0 0 178.53352,29.321299 Z m 0.35309,61.182235 c 22.14998,0 40.13017,18.413226 40.63544,41.309136 l -81.26692,0 c 0.50779,-22.89591 18.48402,-41.309136 40.63148,-41.309136 z"
     id="path2830"
     inkscape:connector-curvature="0" />
  <path
     inkscape:connector-curvature="0"
     id="path6373"
     d="M 178.53352,29.321299 A 131.78777,124.01597 0 0 0 46.745057,153.33947 131.78777,124.01597 0 0 0 178.53352,277.3535 131.78777,124.01597 0 0 0 304.74023,188.85451 l -87.30093,0 c -5.40801,16.75955 -20.60978,28.85084 -38.55269,28.85084 -22.46736,0 -40.67907,-18.93284 -40.67907,-42.29062 l 0,-4.26 170.57917,0 A 131.78777,124.01597 0 0 0 310.31803,153.33947 131.78777,124.01597 0 0 0 178.53352,29.321299 Z m 0.35309,61.182235 c 22.14998,0 40.13017,18.413226 40.63544,41.309136 l -81.26692,0 c 0.50779,-22.89591 18.48402,-41.309136 40.63148,-41.309136 z"
     style="fill:url(#linearGradient6375);fill-opacity:1;fill-rule:nonzero;stroke:none" />
  <path
     style="fill:url(#radialGradient6385);fill-opacity:1;fill-rule:nonzero;stroke:none"
     d="M 178.53352,29.321299 A 131.78777,124.01597 0 0 0 46.745057,153.33947 131.78777,124.01597 0 0 0 178.53352,277.3535 131.78777,124.01597 0 0 0 304.74023,188.85451 l -87.30093,0 c -5.40801,16.75955 -20.60978,28.85084 -38.55269,28.85084 -22.46736,0 -40.67907,-18.93284 -40.67907,-42.29062 l 0,-4.26 170.57917,0 A 131.78777,124.01597 0 0 0 310.31803,153.33947 131.78777,124.01597 0 0 0 178.53352,29.321299 Z m 0.35309,61.182235 c 22.14998,0 40.13017,18.413226 40.63544,41.309136 l -81.26692,0 c 0.50779,-22.89591 18.48402,-41.309136 40.63148,-41.309136 z"
     id="path6383"
     inkscape:connector-curvature="0" />
  <path
     inkscape:connector-curvature="0"
     id="path6393"
     d="M 178.53352,29.321299 A 131.78777,124.01597 0 0 0 46.745057,153.33947 131.78777,124.01597 0 0 0 178.53352,277.3535 131.78777,124.01597 0 0 0 304.74023,188.85451 l -87.30093,0 c -5.40801,16.75955 -20.60978,28.85084 -38.55269,28.85084 -22.46736,0 -40.67907,-18.93284 -40.67907,-42.29062 l 0,-4.26 170.57917,0 A 131.78777,124.01597 0 0 0 310.31803,153.33947 131.78777,124.01597 0 0 0 178.53352,29.321299 Z m 0.35309,61.182235 c 22.14998,0 40.13017,18.413226 40.63544,41.309136 l -81.26692,0 c 0.50779,-22.89591 18.48402,-41.309136 40.63148,-41.309136 z"
     style="fill:url(#radialGradient6395);fill-opacity:1;fill-rule:nonzero;stroke:none" />
  <path
     style="fill:url(#linearGradient6455);fill-opacity:1;fill-rule:nonzero;stroke:none"
     d="M 178.53352,29.321299 A 131.78777,124.01597 0 0 0 46.745057,153.33947 131.78777,124.01597 0 0 0 178.53352,277.3535 131.78777,124.01597 0 0 0 304.74023,188.85451 l -87.30093,0 c -5.40801,16.75955 -20.60978,28.85084 -38.55269,28.85084 -22.46736,0 -40.67907,-18.93284 -40.67907,-42.29062 l 0,-4.26 170.57917,0 A 131.78777,124.01597 0 0 0 310.31803,153.33947 131.78777,124.01597 0 0 0 178.53352,29.321299 Z m 0.35309,61.182235 c 22.14998,0 40.13017,18.413226 40.63544,41.309136 l -81.26692,0 c 0.50779,-22.89591 18.48402,-41.309136 40.63148,-41.309136 z"
     id="path6453"
     inkscape:connector-curvature="0" />
  <path
     style="fill:url(#linearGradient6363);fill-opacity:1;fill-rule:evenodd;stroke:none;stroke-width:1px;stroke-linecap:butt;stroke-linejoin:miter;stroke-opacity:1"
     d="M 266.2221,124.43199 C 302.80677,134.82171 287.04324,84.987092 257.12827,64.022937 240.2916,44.770517 165.00672,-2.1274716 85.644507,72.467213 41.878327,126.23615 85.971717,129.96122 99.285257,114.6886 186.82722,60.202189 206.17301,88.722593 266.2221,124.43199 Z"
     id="path6361"
     inkscape:connector-curvature="0"
     sodipodi:nodetypes="ccccc" />
  <path
     style="fill:url(#linearGradient6451);fill-opacity:1;fill-rule:evenodd;stroke:none;stroke-width:1px;stroke-linecap:butt;stroke-linejoin:miter;stroke-opacity:1"
     d="M 153.84827,62.723814 C -0.5204031,131.45133 -72.019643,368.94381 99.285257,305.00958 -31.671893,282.72032 88.310027,157.56293 153.84827,62.723814 Z"
     id="path6443"
     inkscape:connector-curvature="0"
     sodipodi:nodetypes="ccc" />
  <path
     style="fill:url(#radialGradient6441);fill-opacity:1;fill-rule:evenodd;stroke:none;stroke-width:1px;stroke-linecap:butt;stroke-linejoin:miter;stroke-opacity:1"
     d="M 305.19568,67.270734 C 335.08987,-37.122626 221.83903,12.957635 140.11447,104.32216 57.982957,196.14165 -5.4932631,341.82698 146.05355,272.53159 l 5.84604,3.89736 C -41.027663,382.91746 29.939697,168.62624 134.38954,76.395014 212.04428,7.8243744 353.11172,-50.880633 311.69127,69.219414 Z"
     id="path6405"
     inkscape:connector-curvature="0"
     sodipodi:nodetypes="csccscc" />
  <path
     sodipodi:nodetypes="csccscc"
     inkscape:connector-curvature="0"
     id="path6421"
     d="M 305.19568,67.270734 C 335.08987,-37.122626 221.83903,12.957635 140.11447,104.32216 57.982957,196.14165 -5.4932631,341.82698 146.05355,272.53159 l 5.84604,3.89736 C -28.036473,386.16526 29.841097,170.02592 136.98778,80.941934 213.99296,16.918215 353.11172,-50.880633 311.69127,69.219414 Z"
     style="fill:url(#radialGradient6413);fill-opacity:1;fill-rule:evenodd;stroke:none;stroke-width:1px;stroke-linecap:butt;stroke-linejoin:miter;stroke-opacity:1" />
</svg>
